<svg width="21" height="19" viewBox="0 0 21 19" fill="none" xmlns="http://www.w3.org/2000/svg">
<path d="M18.4609 0.931641H3.46094C2.09375 0.931641 0.960938 2.06445 0.960938 3.43164V15.9316C0.960938 17.3379 2.09375 18.4316 3.46094 18.4316H18.4609C19.8281 18.4316 20.9609 17.3379 20.9609 15.9316V3.43164C20.9609 2.06445 19.8672 0.931641 18.4609 0.931641ZM5.33594 3.43164C6.35156 3.43164 7.21094 4.29102 7.21094 5.30664C7.21094 6.36133 6.39062 7.18164 5.33594 7.18164C4.24219 7.18164 3.46094 6.36133 3.46094 5.30664C3.46094 4.29102 4.32031 3.43164 5.33594 3.43164ZM18.4219 15.6191C18.3047 15.8145 18.0703 15.9316 17.875 15.9316H4.20312C3.92969 15.9316 3.73438 15.8145 3.61719 15.6191C3.53906 15.3848 3.53906 15.1504 3.69531 14.9551L6.42969 11.2051C6.54688 11.0488 6.70312 10.9316 6.9375 10.9316C7.13281 10.9316 7.28906 11.0488 7.40625 11.2051L8.69531 12.9629L12.3281 7.49414C12.4453 7.29883 12.6406 7.18164 12.875 7.18164C13.0703 7.18164 13.2656 7.29883 13.3828 7.49414L18.3828 14.9941C18.5 15.1504 18.5 15.4238 18.4219 15.6191Z" fill="white"/>
</svg>
