<svg width="302" height="137" viewBox="0 0 302 137" fill="none" xmlns="http://www.w3.org/2000/svg">
<g filter="url(#filter0_ddd_2157_1061)">
<path d="M35.7278 58.0325V60.8543H40.1009V64.2896H35.7278V70.5467H32V54.5972H41.6064V58.0325H35.7278Z" fill="white"/>
<path d="M65.0488 65.0993L68.3943 70.5467H64.2124L60.9625 65.4674H59.1942V70.5467H55.4663V54.5972H62.8981C66.7215 54.5972 68.4421 57.5908 68.4421 60.0446C68.4421 61.8358 67.5101 64.216 65.0488 65.0993ZM59.1942 62.0321H62.8742C63.3521 62.0321 63.7823 61.9585 64.0929 61.8113C64.308 61.6886 64.4992 61.5659 64.6425 61.3941C64.9771 60.977 65.0966 60.4126 65.0966 60.0446C65.0966 59.652 64.9771 59.0876 64.5948 58.6704C64.2363 58.2288 63.6867 58.0325 62.8981 58.0325H59.1942V62.0321Z" fill="white"/>
<path d="M124.862 54.5972V70.5467L114.562 62.7683V70.5467H110.834V54.5972L121.134 62.7437V54.5972H124.862Z" fill="white"/>
<path d="M146.344 58.4251V70.5467H142.617V58.4251H138.578V54.5972H150.383V58.4251H146.344Z" fill="white"/>
<path d="M167.397 54.5972V70.5467H163.669V54.5972H167.397Z" fill="white"/>
<path d="M184.627 67.1114H191.748V70.5467H180.899V54.5972H191.748V58.0325H184.627V60.8543H190.672V64.2896H184.627V67.1114Z" fill="white"/>
<path d="M215.19 65.0993L218.536 70.5467H214.354L211.104 65.4674H209.336V70.5467H205.608V54.5972H213.039C216.863 54.5972 218.583 57.5908 218.583 60.0446C218.583 61.8358 217.651 64.216 215.19 65.0993ZM209.336 62.0321H213.016C213.493 62.0321 213.924 61.9585 214.234 61.8113C214.449 61.6886 214.641 61.5659 214.784 61.3941C215.118 60.977 215.238 60.4126 215.238 60.0446C215.238 59.652 215.118 59.0876 214.736 58.6704C214.378 58.2288 213.828 58.0325 213.039 58.0325H209.336V62.0321Z" fill="white"/>
<path d="M242.862 62.5231L248 67.7987L245.347 70.4979L240.21 65.2223L235.072 70.4979L232.443 67.7987L237.581 62.5231L232.443 57.2475L235.096 54.5483L240.21 59.7994L245.347 54.5483L248 57.2475L242.862 62.5231Z" fill="white"/>
<path d="M97.5301 57.5236L94.7163 54.6343L93.5603 55.8213C92.3625 55.0913 90.9675 54.668 89.474 54.668C85.0532 54.668 81.4687 58.3487 81.4687 62.8882C81.4687 64.4218 81.8779 65.8573 82.5918 67.0841L81.4149 68.2926L84.2287 71.182L85.4116 69.9673C86.6034 70.6912 87.9924 71.1053 89.477 71.1053C93.8978 71.1053 97.4823 67.4246 97.4823 62.8851C97.4823 61.3607 97.076 59.9344 96.3741 58.7106L97.5361 57.5175L97.5301 57.5236ZM85.092 64.5169C84.9128 64.0016 84.8142 63.4525 84.8142 62.8882C84.8142 61.6122 85.2921 60.4099 86.1763 59.502C87.0605 58.5941 88.2314 58.1033 89.474 58.1033C90.0236 58.1033 90.5553 58.2045 91.0601 58.3886L85.095 64.5138L85.092 64.5169ZM92.7717 66.2744C91.8875 67.1578 90.7166 67.673 89.474 67.673C88.9363 67.673 88.4136 67.5718 87.9207 67.3909L93.865 61.2871C94.0382 61.7962 94.1338 62.333 94.1338 62.8882C94.1338 64.1641 93.6559 65.3665 92.7717 66.2744Z" fill="white"/>
<path d="M247.755 45H81.3342V49.0855H247.755V45Z" fill="white"/>
</g>
<defs>
<filter id="filter0_ddd_2157_1061" x="-22" y="0" width="324" height="136.182" filterUnits="userSpaceOnUse" color-interpolation-filters="sRGB">
<feFlood flood-opacity="0" result="BackgroundImageFix"/>
<feColorMatrix in="SourceAlpha" type="matrix" values="0 0 0 0 0 0 0 0 0 0 0 0 0 0 0 0 0 0 127 0" result="hardAlpha"/>
<feMorphology radius="8" operator="dilate" in="SourceAlpha" result="effect1_dropShadow_2157_1061"/>
<feOffset dy="9"/>
<feGaussianBlur stdDeviation="23"/>
<feColorMatrix type="matrix" values="0 0 0 0 0 0 0 0 0 0 0 0 0 0 0 0 0 0 0.12 0"/>
<feBlend mode="normal" in2="BackgroundImageFix" result="effect1_dropShadow_2157_1061"/>
<feColorMatrix in="SourceAlpha" type="matrix" values="0 0 0 0 0 0 0 0 0 0 0 0 0 0 0 0 0 0 127 0" result="hardAlpha"/>
<feMorphology radius="3" operator="dilate" in="SourceAlpha" result="effect2_dropShadow_2157_1061"/>
<feOffset dy="24"/>
<feGaussianBlur stdDeviation="19"/>
<feColorMatrix type="matrix" values="0 0 0 0 0 0 0 0 0 0 0 0 0 0 0 0 0 0 0.14 0"/>
<feBlend mode="normal" in2="effect1_dropShadow_2157_1061" result="effect2_dropShadow_2157_1061"/>
<feColorMatrix in="SourceAlpha" type="matrix" values="0 0 0 0 0 0 0 0 0 0 0 0 0 0 0 0 0 0 127 0" result="hardAlpha"/>
<feMorphology radius="7" operator="erode" in="SourceAlpha" result="effect3_dropShadow_2157_1061"/>
<feOffset dy="11"/>
<feGaussianBlur stdDeviation="7.5"/>
<feColorMatrix type="matrix" values="0 0 0 0 0 0 0 0 0 0 0 0 0 0 0 0 0 0 0.2 0"/>
<feBlend mode="normal" in2="effect2_dropShadow_2157_1061" result="effect3_dropShadow_2157_1061"/>
<feBlend mode="normal" in="SourceGraphic" in2="effect3_dropShadow_2157_1061" result="shape"/>
</filter>
</defs>
</svg>
