<svg width="21" height="19" viewBox="0 0 21 19" fill="none" xmlns="http://www.w3.org/2000/svg">
<path d="M6.25 15.9316H3.75C3.04688 15.9316 2.5 15.3848 2.5 14.6816V4.68164C2.5 4.01758 3.04688 3.43164 3.75 3.43164H6.25C6.91406 3.43164 7.5 2.88477 7.5 2.18164C7.5 1.51758 6.91406 0.931641 6.25 0.931641H3.75C1.64062 0.931641 0 2.61133 0 4.68164V14.6816C0 16.791 1.64062 18.4316 3.75 18.4316H6.25C6.91406 18.4316 7.5 17.8848 7.5 17.1816C7.5 16.5176 6.91406 15.9316 6.25 15.9316ZM19.6094 8.82227L14.6094 3.82227C14.1406 3.31445 13.3203 3.31445 12.8516 3.82227C12.3438 4.29102 12.3438 5.11133 12.8516 5.58008L15.7031 8.43164H7.5C6.79688 8.43164 6.25 9.01758 6.25 9.68164C6.25 10.3848 6.79688 10.9316 7.5 10.9316H15.7031L12.8516 13.8223C12.3438 14.291 12.3438 15.1113 12.8516 15.5801C13.3203 16.0879 14.1406 16.0879 14.6094 15.5801L19.6094 10.5801C20.1172 10.1113 20.1172 9.29102 19.6094 8.82227Z" fill="white"/>
</svg>
