<svg width="22" height="21" viewBox="0 0 22 21" fill="none" xmlns="http://www.w3.org/2000/svg">
<path d="M20.5312 18.0254L15.8438 13.3379C16.8984 11.7754 17.4453 9.82227 17.1719 7.71289C16.6641 4.11914 13.7344 1.22852 10.1797 0.759766C4.86719 0.0957031 0.375 4.58789 1.03906 9.90039C1.50781 13.4551 4.39844 16.3848 7.99219 16.8926C10.1016 17.166 12.0547 16.6191 13.6562 15.5645L18.3047 20.252C18.9297 20.8379 19.9062 20.8379 20.5312 20.252C21.1172 19.627 21.1172 18.6504 20.5312 18.0254ZM4.08594 8.80664C4.08594 6.07227 6.3125 3.80664 9.08594 3.80664C11.8203 3.80664 14.0859 6.07227 14.0859 8.80664C14.0859 11.5801 11.8203 13.8066 9.08594 13.8066C6.3125 13.8066 4.08594 11.5801 4.08594 8.80664Z" fill="white"/>
</svg>
