<svg width="20" height="21" viewBox="0 0 20 21" fill="none" xmlns="http://www.w3.org/2000/svg">
<path d="M19.3359 7.20508C19.4922 7.55664 19.375 7.9082 19.1016 8.18164L17.4219 9.70508C17.4609 10.0176 17.5 10.3691 17.5 10.6816C17.5 11.0332 17.4609 11.3848 17.4219 11.6973L19.1016 13.2207C19.375 13.4941 19.4922 13.8457 19.3359 14.1973C19.1797 14.666 18.9844 15.0957 18.75 15.5254L18.5547 15.8379C18.2812 16.2676 18.0078 16.6973 17.6953 17.0879C17.4609 17.3613 17.0703 17.4395 16.7188 17.3223L14.5703 16.6582C14.0234 17.0488 13.4375 17.3613 12.8516 17.6348L12.3438 19.8613C12.2656 20.2129 11.9922 20.4863 11.6406 20.5645C11.0938 20.6426 10.5469 20.6816 9.96094 20.6816C9.41406 20.6816 8.86719 20.6426 8.32031 20.5645C7.96875 20.4863 7.69531 20.2129 7.61719 19.8613L7.10938 17.6348C6.52344 17.3613 5.9375 17.0488 5.39062 16.6582L3.24219 17.3223C2.89062 17.4395 2.5 17.3613 2.26562 17.0879C1.95312 16.6973 1.67969 16.2676 1.40625 15.8379L1.21094 15.5254C0.976562 15.0957 0.78125 14.666 0.625 14.1973C0.46875 13.8457 0.585938 13.4941 0.859375 13.2207L2.53906 11.6973C2.5 11.3848 2.5 11.0332 2.5 10.6816C2.5 10.3691 2.5 10.0176 2.53906 9.70508L0.859375 8.18164C0.585938 7.9082 0.46875 7.55664 0.625 7.20508C0.78125 6.73633 0.976562 6.30664 1.21094 5.87695L1.40625 5.56445C1.67969 5.13477 1.95312 4.70508 2.26562 4.31445C2.5 4.04102 2.89062 3.96289 3.24219 4.08008L5.39062 4.74414C5.9375 4.35352 6.52344 4.00195 7.10938 3.76758L7.61719 1.54102C7.69531 1.18945 7.96875 0.916016 8.32031 0.837891C8.86719 0.759766 9.41406 0.681641 10 0.681641C10.5469 0.681641 11.0938 0.759766 11.6406 0.837891C11.9922 0.916016 12.2656 1.18945 12.3438 1.54102L12.8516 3.76758C13.4375 4.00195 14.0234 4.35352 14.5703 4.74414L16.7188 4.08008C17.0703 3.96289 17.4609 4.04102 17.6953 4.31445C18.0078 4.70508 18.2812 5.13477 18.5547 5.56445L18.75 5.87695C18.9844 6.30664 19.1797 6.73633 19.3359 7.20508ZM10 13.8066C11.7188 13.8066 13.125 12.4395 13.125 10.6816C13.125 8.96289 11.7188 7.55664 10 7.55664C8.24219 7.55664 6.875 8.96289 6.875 10.6816C6.875 12.4395 8.24219 13.8066 10 13.8066Z" fill="white" fill-opacity="0.5"/>
</svg>
